<svg xmlns="http://www.w3.org/2000/svg" xmlns:xlink="http://www.w3.org/1999/xlink" width="82" height="88">
  <defs>
    <linearGradient id="linearGradient-1" x1="62.2297577%" x2="13.8190199%" y1="94.4451062%" y2="8.70683263%">
      <stop offset="0%" stop-color="#1696E9"/>
      <stop offset="100%" stop-color="#1BA1F0"/>
    </linearGradient>
    <circle id="path-2" cx="30.375" cy="37.875" r="22.125"/>
    <filter id="filter-3" width="192.7%" height="192.7%" x="-46.3%" y="-28.2%" filterUnits="objectBoundingBox">
      <feOffset dy="8" in="SourceAlpha" result="shadowOffsetOuter1"/>
      <feGaussianBlur in="shadowOffsetOuter1" result="shadowBlurOuter1" stdDeviation="5.5"/>
      <feColorMatrix in="shadowBlurOuter1" values="0 0 0 0 0.215686275 0 0 0 0 0.407843137 0 0 0 0 0.556862745 0 0 0 0.25 0"/>
    </filter>
    <circle id="path-4" cx="30" cy="30" r="30"/>
    <filter id="filter-6" width="156.7%" height="156.7%" x="-28.3%" y="-26.7%" filterUnits="objectBoundingBox">
      <feOffset dy="1" in="SourceAlpha" result="shadowOffsetOuter1"/>
      <feGaussianBlur in="shadowOffsetOuter1" result="shadowBlurOuter1" stdDeviation="5.5"/>
      <feComposite in="shadowBlurOuter1" in2="SourceAlpha" operator="out" result="shadowBlurOuter1"/>
      <feColorMatrix in="shadowBlurOuter1" values="0 0 0 0 0.215686275 0 0 0 0 0.407843137 0 0 0 0 0.556862745 0 0 0 0.3 0"/>
    </filter>
    <filter id="filter-7" width="213.5%" height="211.3%" x="-56.7%" y="-55.7%" filterUnits="objectBoundingBox">
      <feOffset dy="4" in="SourceAlpha" result="shadowOffsetOuter1"/>
      <feGaussianBlur in="shadowOffsetOuter1" result="shadowBlurOuter1" stdDeviation="5.5"/>
      <feColorMatrix in="shadowBlurOuter1" result="shadowMatrixOuter1" values="0 0 0 0 0 0 0 0 0 0 0 0 0 0 0 0 0 0 0.35 0"/>
      <feMerge>
        <feMergeNode in="shadowMatrixOuter1"/>
        <feMergeNode in="SourceGraphic"/>
      </feMerge>
    </filter>
    <path id="path-8" d="M22.9102387 21.6119924v6.4495893c0 .255147-.0194724.5498385-.0548257.8614028l3.6971448 2.9266759c.2810654.2224926.3567593.6531881.1700912.9627959l-.0895259.1484875c-.1903944.3157881-.6307334.5299288-.9918475.4921008l-4.0387048-.4230691c-.4858491.9715606-1.1901107 2.0151746-1.9737362 2.0151746-.7826858 0-1.4822089-1.0411124-1.9642797-2.0116788l-4.0053331.4195733c-.3611141.037828-.8014532-.1763127-.9918476-.4921008l-.0895258-.1484875c-.1866682-.3096078-.1109742-.7403033.1700911-.9627959l3.677687-2.911273c-.0372436-.3175784-.058046-.6177544-.058046-.8768057v-6.4447432l-13.6931256.6988127c-.35424352.0180784-.85833423-.1554859-1.13611991-.3965187l-.1932578-.1676886c-.27321819-.2370696-.48992189-.7279224-.48419674-1.0853942l.01338453-.8357143c.00580371-.362377.26301995-.7857749.58265245-.9498666l14.91066307-7.6547776V5.43595273c0-.89737694.3204906-2.27134721.7653872-3.06566122 0 0 .960477-2.37029151 2.5068293-2.37029151 1.5463522 0 2.5122128 2.38114912 2.5122128 2.38114912.4187583.78974451.7582289 2.15178583.7582289 3.05480361v5.74098917L37.91586 18.8804688c.3196325.1640917.5768488.5874896.5826525.9498666l.0133845.8357143c.0057252.3574718-.2109785.8483246-.4841967 1.0853942l-.1932578.1676886c-.2777857.2410328-.7818764.4145971-1.1361199.3965187l-13.7880839-.7036588z"/>
  </defs>
  <g id="Page-1" fill="none" fill-rule="evenodd">
    <g id="1024" transform="translate(-471 -41)">
      <g id="Logo" transform="translate(482 50)">
        <g id="Group-3" transform="translate(0 .140845)">
          <use id="Oval" fill="#000" filter="url(#filter-3)" xlink:href="#path-2"/>
          <mask id="mask-5" fill="#fff">
            <use xlink:href="#path-4"/>
          </mask>
          <g id="Oval">
            <use fill="#000" filter="url(#filter-6)" xlink:href="#path-4"/>
            <circle cx="30" cy="30" r="28.125" fill="#2196F3" stroke="#42A5F5" stroke-linejoin="square" stroke-width="3.75"/>
          </g>
          <g id="Group-2" stroke="#42A5F5" stroke-width="3.75" mask="url(#mask-5)">
            <g transform="translate(2.25 4.5)">
              <path id="Line" stroke-linecap="square" d="M.46398305 18.375H54.2860169M.46398305 34.125H54.2860169"/>
              <path id="Path-2" stroke-linecap="round" stroke-linejoin="round" d="M27 0s-9.9622425 11.5775355-9.7465473 26.25C17.4691478 40.9224645 27 51 27 51"/>
              <path id="Path-2" stroke-linecap="round" stroke-linejoin="round" d="M37.5 0s-9.9622425 11.5775355-9.7465473 26.25C27.9691478 40.9224645 37.5 51 37.5 51" transform="matrix(-1 0 0 1 65.25 0)"/>
            </g>
          </g>
        </g>
        <g id="Group-7" filter="url(#filter-7)" transform="translate(3.460597 2.077465)">
          <g id="Plane-Icon" transform="rotate(60 15.35336775 28.26417826)">
            <mask id="mask-9" fill="#fff">
              <use xlink:href="#path-8"/>
            </mask>
            <use id="Combined-Shape" fill="#FFF" xlink:href="#path-8"/>
            <path id="Rectangle-7" fill="#EBECF2" d="M15.0590488 9.94003106h1.3085317V22.348385h-1.3085317z" mask="url(#mask-9)"/>
            <path id="Rectangle-5" fill="#DEE1E3" d="M38.4985125 19.8303354c-.0058037-.362377-.26302-.7857749-.5826525-.9498666l-15.5035904-7.9591723v10.6652826l14.286053.7290721c.3542435.0180784.8583342-.1554859 1.1361199-.3965187l.1932578-.1676886c.2732182-.2370696.4899219-.7279224.4841967-1.0853942l-.0133845-.8357143z" mask="url(#mask-9)"/>
            <path id="Combined-Shape" fill="#DEE1E3" d="M21.4922483 33.0184188c.4144377-.9152106.6571615-1.794815.6571615-1.794815.2289696-.6497784.4147964-1.6160829.5007692-2.4630834l3.9023788 3.08914c.2810654.2224926.3567593.6531881.1700912.9627959l-.0895259.1484875c-.1903944.3157881-.6307334.5299288-.9918475.4921008l-4.1490273-.4346258z" mask="url(#mask-9)" opacity=".40000001"/>
            <path id="Combined-Shape" fill="#C5C6CC" d="M26.4262072 21.7914258l-3.7466978-.1912084V11.058491l1.7915103.9197185 1.9551875 9.8132163z" mask="url(#mask-9)"/>
            <path id="Combined-Shape" fill="#DEE1E3" d="M22.9102387.6785874v34.3996479s-1.8153712-.0330852-3.2814041-.0330852c-.017748 0-.0354049-.0005158-.0529702-.0015349.7604021-1.1215523 2.0258427-3.5332202 2.0258427-6.5806968V4.64777754c0-2.64612676-1.2031395-3.98887935-1.6864279-4.62486866 1.3521978.22813434 2.9949595.65567852 2.9949595.65567852z" mask="url(#mask-9)"/>
          </g>
        </g>
      </g>
    </g>
  </g>
</svg>
